<svg width="934" height="356" viewBox="0 0 934 356" fill="none" xmlns="http://www.w3.org/2000/svg">
<path fill-rule="evenodd" clip-rule="evenodd" d="M827.541 53.3174C832.692 50.5909 843.157 44.6253 848.292 43.0739L785.418 8.5846C764.268 -2.96174 770.903 -2.18123 754.076 6.87573L630.063 75.4577C623.014 79.2595 605.25 88.1542 599.865 92.5915L599.683 107.639C599.655 157.858 598.602 219.168 599.885 268.109C603.392 271.075 650.978 293.675 661.637 298.826C675.646 305.596 675.424 307.61 682.004 303.937C693.481 297.532 756.944 266.02 761.281 261.92L683.503 218.966C683.432 191.901 682.684 155.179 683.713 129.101L827.541 53.3184V53.3174Z" fill="#19499E"/>
<path fill-rule="evenodd" clip-rule="evenodd" d="M805.799 112.547C817.262 118.663 828.769 124.876 840.148 131.343C851.542 137.821 849.45 133.481 849.45 148.757C849.448 173.065 850.264 203.863 849.455 226.714L684.686 313.354C687.901 316.26 739.479 343.137 746.992 346.867C768.806 357.695 760.611 358.825 778.371 349.148C788.624 343.56 799.063 337.796 809.494 332.07C830.521 320.527 850.281 309.002 871.333 297.674C891.671 286.732 912.132 274.499 933.104 263.868L933.077 87.1944C915.962 79.7109 889.523 66.064 871.455 56.9494C857.585 49.9527 857.293 48.3552 851.13 51.7479C840.894 57.3843 774.672 90.543 771.704 93.5959L805.798 112.546L805.799 112.547Z" fill="#19499E"/>
<path fill-rule="evenodd" clip-rule="evenodd" d="M697.134 187.874C701.158 222.713 736.99 254.896 777.145 248.436C790.415 246.301 805.015 240.497 814.126 231.445C829.677 215.993 841.957 198.342 838.18 168.656C833.747 133.828 799.879 100.552 758.231 107.527C720.913 113.775 692.045 143.817 697.134 187.875V187.874Z" fill="#FCB913"/>
<path fill-rule="evenodd" clip-rule="evenodd" d="M120.571 242.675C228.51 242.481 279.074 179.808 319.18 163.081C329.8 158.653 335.368 153.508 338 142.179C298.784 148.432 250.468 210.426 149.154 218.168C80.4643 223.418 81.3026 199.33 64.2426 218.68C51.1566 233.522 55.541 223.472 42.7933 229.043C36.3119 231.877 35.3704 243.586 21.8068 241.439C-0.602749 237.893 14.4522 187.702 16.6873 161.861C16.3639 162.187 15.9783 162.653 15.783 162.903L13.3813 166.11C13.3303 166.19 11.3303 170.053 11.0877 170.59C9.676 173.74 8.56031 176.98 7.51055 180.365C3.34631 193.81 -2.67117 238.957 1.29779 251.586C6.86751 269.305 22.9336 266.514 31.1576 254.386C36.042 247.182 36.0072 242.789 45.1789 241.388C57.6804 239.48 55.2761 241.294 61.1033 230.603C76.6147 234.243 67.2315 242.773 120.569 242.672L120.571 242.675Z" fill="#19499E"/>
<path fill-rule="evenodd" clip-rule="evenodd" d="M416.388 256.116C406.032 256.936 402.87 253.018 401.971 243.157C400.011 221.669 410.247 190.256 411.459 173.179C390.543 185.849 413.417 231.3 345.161 248.595C325.062 253.688 302.399 256.87 281.074 256.631C219.966 255.94 243.007 251.544 228.634 237.683C226.7 245.055 224.874 258.703 226.856 267.244C232.209 290.295 290.591 280.558 307.452 277.613C367.971 267.037 386.472 234.644 393.313 232.003C394.174 249.82 385.159 275.8 405.083 280.828C417.148 280.912 425.496 253.343 422.323 243.819L416.388 256.118V256.116Z" fill="#19499E"/>
<path fill-rule="evenodd" clip-rule="evenodd" d="M411 168.179C418.954 164.225 423.15 160.578 429.632 155.397C457.684 132.981 531.211 81.2812 536 50.1787C525.792 57.6359 514.788 70.9954 504.739 79.7796L438.936 134.609C426.536 144.09 415.721 153.42 411 168.179Z" fill="#19499E"/>
<path fill-rule="evenodd" clip-rule="evenodd" d="M462.216 242.642C434.025 240.393 461.222 176.692 455.445 166.179C438.412 189.747 430.123 286.827 459.272 263.624C463.296 260.42 465.592 253.847 467.392 248.071C468.066 245.908 469.718 240.801 470 238.847L468.988 231.179C465.537 236.952 467.284 238.108 462.216 242.642Z" fill="#19499E"/>
<path fill-rule="evenodd" clip-rule="evenodd" d="M50.4144 154.179C63.233 142.577 64.1719 130.158 47.2452 123.179C39.3146 139.26 29.8044 145.63 50.4144 154.179Z" fill="#19499E"/>
<path fill-rule="evenodd" clip-rule="evenodd" d="M64.0396 306.179C76.3495 296.331 76.8361 281.97 60.0935 275.179L50 295.098C53.8654 300.705 57.4396 303.992 64.0409 306.179H64.0396Z" fill="#19499E"/>
<path fill-rule="evenodd" clip-rule="evenodd" d="M88.0132 305.179C95.5209 294.955 103.003 279.921 84.0691 274.179C79.6381 279.673 75.0182 288.429 74 295.272C79.4306 300.342 80.0101 302.572 88.0145 305.178L88.0132 305.179Z" fill="#19499E"/>
<path fill-rule="evenodd" clip-rule="evenodd" d="M425.651 216.179C429.805 213.811 435.137 207.686 434.997 199.991C434.858 192.368 429.214 189.522 423.985 186.179C422.866 187.295 422.779 187.295 421.438 189.083C420.53 190.293 420.836 189.856 420.035 191.129L413 206.336C415.555 210.288 420.457 214.287 425.652 216.179H425.651Z" fill="#19499E"/>
<path fill-rule="evenodd" clip-rule="evenodd" d="M455.164 304.179C458.791 300.607 463.879 294.507 462.87 287.182C462.1 281.598 456.24 276.86 451.277 275.179L442 295.296C446.137 300.63 448.498 302.882 455.164 304.179Z" fill="#19499E"/>
</svg>
