<?xml version="1.0" encoding="UTF-8"?>
<!DOCTYPE svg PUBLIC "-//W3C//DTD SVG 1.1//EN" "http://www.w3.org/Graphics/SVG/1.1/DTD/svg11.dtd">
<!-- Creator: CorelDRAW (OEM Version) -->
<svg xmlns="http://www.w3.org/2000/svg" xml:space="preserve" width="5.51909in" height="2.29008in" version="1.1" shape-rendering="geometricPrecision" text-rendering="geometricPrecision" image-rendering="optimizeQuality" fill-rule="evenodd" clip-rule="evenodd"
viewBox="0 0 5513.12 2287.6"
 xmlns:xlink="http://www.w3.org/1999/xlink"
 xmlns:xodm="http://www.corel.com/coreldraw/odm/2003">
 <g id="Layer_x0020_1">
  <metadata id="CorelCorpID_0Corel-Layer"/>
  <g id="_3059235292816">
   <path fill="#19499E" fill-rule="nonzero" d="M235.7 545.7c0,25.87 4.7,51.5 35.73,51.5l233.55 0c6.31,0 11.95,-0.83 16.9,-2.48 4.81,-1.6 9.07,-4.01 12.76,-7.21 3.55,-3.07 6.22,-6.77 7.99,-11.06 1.82,-4.43 2.75,-9.63 2.75,-15.57l0 -101.61 62.38 0 0 102.2c0,30.69 -9.5,55.18 -28.49,73.13 -9.47,8.95 -20.47,15.66 -32.95,20.11 -12.36,4.41 -26.15,6.62 -41.34,6.62l-233.55 0c-42.43,0 -69.74,-16.66 -81.79,-49.98 -2.48,1.89 -5.15,3.65 -8.01,5.29 -31.28,17.98 -85.23,20.59 -118.22,8.92 -13.67,-4.84 -25.28,-12.13 -34.8,-21.86 -9.49,-9.7 -16.6,-21.65 -21.32,-35.79 -18.81,-56.59 -1.05,-124.81 51,-156.96 9.27,-5.73 19.17,-10.02 29.67,-12.86 10.48,-2.84 21.58,-4.26 33.27,-4.26l52.09 0 0 -40.33 62.37 0 0 192.2zm1384.6 634.39c0.46,-0.09 0.63,-0.14 0,-0.14 -0.63,0 -0.46,0.05 0,0.14zm0 50.11l-516.99 0c-15.64,0 -29.52,-2.38 -41.6,-7.14 -12.3,-4.84 -22.69,-12.13 -31.13,-21.85 -8.32,-9.58 -14.56,-21.17 -18.69,-34.74 -4.06,-13.33 -6.1,-28.49 -6.1,-45.48l0 -248.26 62.38 0 0 245.93c0,16.44 3.18,28.58 9.54,36.36 6,7.37 15.31,11.05 27.93,11.05l538.03 0c7.91,0 14.86,-0.92 20.82,-2.75 5.76,-1.77 10.67,-4.39 14.71,-7.85 3.94,-3.38 6.91,-7.41 8.87,-12.04 2,-4.75 3.01,-10.29 3.01,-16.6l0 -98.69 62.37 0 0 96.94c0,5.37 0.45,10.06 1.35,14.04 0.85,3.75 2.08,6.9 3.68,9.41 1.62,2.51 3.67,4.71 6.17,6.59 1.24,0.93 2.59,1.79 4.05,2.58 17.28,-30.35 33.98,-56.73 50.08,-79.11 17.14,-23.82 33.57,-43.05 49.25,-57.65 15.95,-14.84 32.21,-26 48.77,-33.46 16.79,-7.57 33.86,-11.36 51.21,-11.36 11.06,0 21.65,1.39 31.75,4.15 10.15,2.77 19.68,6.91 28.57,12.38 8.84,5.44 16.81,11.99 23.86,19.62 7.01,7.58 13.05,16.17 18.07,25.72 5.05,9.59 8.85,19.87 11.37,30.82 2.51,10.92 3.77,22.47 3.77,34.64 0,11.24 -1.24,21.87 -3.72,31.89 -1.99,8.02 -4.75,15.61 -8.3,22.75 1.06,0.64 2.16,1.24 3.32,1.79 2.97,1.42 6.32,2.57 10.04,3.43 3.99,0.92 8.49,1.61 13.48,2.06 4.99,0.45 10.8,0.68 17.41,0.68l26.88 0c12.07,0 20.9,-2.53 26.48,-7.56 5.38,-4.85 8.07,-12.49 8.07,-22.91l0 -23.95c0,-19.42 2.62,-36.86 7.83,-52.31 5.29,-15.66 13.25,-29.22 23.85,-40.65 10.64,-11.48 23.29,-20.1 37.9,-25.85 14.46,-5.68 30.79,-8.53 48.97,-8.53 18.15,0 34.31,2.69 48.45,8.06 14.38,5.46 26.62,13.66 36.7,24.58 10,10.84 17.52,24.08 22.51,39.69 4.92,15.33 7.38,32.9 7.38,52.65 0,18.84 -2.57,35.67 -7.71,50.46 -5.21,15.02 -13.06,27.88 -23.51,38.54 -10.47,10.68 -22.92,18.68 -37.32,24.01 -14.22,5.25 -30.31,7.89 -48.26,7.89 -21.21,0 -39.1,-3.22 -53.63,-9.66 -11.35,-5.02 -20.63,-11.98 -27.84,-20.86 -2.14,3.01 -4.44,5.8 -6.9,8.36 -4.86,5.09 -10.37,9.27 -16.48,12.55 -6.04,3.23 -13.02,5.65 -20.91,7.25 -7.74,1.57 -16.29,2.36 -25.59,2.36l-26.88 0c-10.3,0 -19.64,-0.49 -27.98,-1.45 -8.46,-0.97 -15.89,-2.45 -22.27,-4.43 -6.55,-2.03 -12.76,-4.96 -18.6,-8.77 -4.13,-2.69 -8.06,-5.8 -11.81,-9.35 -9.98,7.39 -21.16,13.08 -33.53,17.06 -14.37,4.62 -30.28,6.93 -47.69,6.93l-156.03 0c-21.15,0 -38.82,-3.08 -52.99,-9.22 -11.07,-4.8 -19.96,-11.44 -26.66,-19.9 -6.92,8.46 -15.71,15.08 -26.35,19.87 -13.68,6.16 -30.36,9.25 -50.03,9.25l-23.38 0zm-1307.61 1.82c0,-10.16 -2.8,-17.61 -8.35,-22.35 -5.9,-5.02 -15.22,-7.54 -27.95,-7.54l-117.97 0 0 -113.29c0,-16.94 2.59,-32.39 7.76,-46.31 5.21,-14.02 13.03,-26.39 23.43,-37.11 10.46,-10.78 22.74,-18.85 36.83,-24.23 13.95,-5.32 29.63,-7.98 47.03,-7.98l80.59 0 5.27 62.39 -87.03 0c-7.71,0 -14.65,1.22 -20.76,3.65 -6.02,2.4 -11.37,6.02 -16.04,10.86 -4.72,4.9 -8.25,10.39 -10.58,16.45 -2.36,6.12 -3.54,12.98 -3.54,20.53l0 50.91 63.19 0c14.76,0 27.78,1.97 39.02,5.89 11.54,4.02 21.17,10.11 28.84,18.22 7.58,8.02 13.28,17.72 17.07,29.09 3.7,11.13 5.57,23.77 5.57,37.89 0,12.94 -1.89,25.47 -5.66,37.56 -3.76,12.05 -9.39,23.63 -16.86,34.69 -7.44,11 -16.22,20.88 -26.35,29.63 -10.08,8.71 -21.47,16.26 -34.14,22.64 -12.67,6.38 -26.05,11.18 -40.1,14.37 -14.05,3.2 -28.72,4.79 -43.95,4.79l-45 0c-25.33,0 -47.89,-3.72 -67.6,-11.13 -19.91,-7.49 -36.87,-18.75 -50.84,-33.75 -13.9,-14.93 -24.34,-32.83 -31.29,-53.68 -6.87,-20.62 -10.32,-44.04 -10.32,-70.25l0 -117.38 62.38 0 0 116.22c0,17.83 2.13,33.41 6.37,46.7 4.15,13 10.36,23.92 18.61,32.7 8.21,8.74 18.37,15.32 30.47,19.71 12.35,4.48 26.82,6.72 43.37,6.72l43.83 0c10.54,0 20.43,-0.86 29.63,-2.57 9.22,-1.71 17.84,-4.27 25.83,-7.66 7.87,-3.34 14.9,-7.35 21.06,-12 6.06,-4.58 11.24,-9.78 15.51,-15.56 4.22,-5.71 7.39,-11.8 9.49,-18.25 2.1,-6.43 3.15,-13.3 3.15,-20.59zm225.51 -1.82l-15.2 0c-15.64,0 -29.52,-2.38 -41.6,-7.14 -12.3,-4.84 -22.69,-12.13 -31.13,-21.85 -8.32,-9.58 -14.56,-21.17 -18.69,-34.74 -4.06,-13.33 -6.1,-28.49 -6.1,-45.48l0 -248.26 62.38 0 0 245.93c0,16.44 3.18,28.58 9.54,36.36 6,7.37 15.31,11.05 27.93,11.05l86.21 0c-1.13,-1.21 -2.24,-2.45 -3.32,-3.72 -5.26,-6.2 -9.92,-13.18 -13.95,-20.93 -4.04,-7.78 -7.09,-15.66 -9.12,-23.63 -2.04,-8.01 -3.06,-16.11 -3.06,-24.28 0,-11.05 1.33,-21.65 3.97,-31.76 2.64,-10.11 6.62,-19.69 11.91,-28.72 5.29,-9.01 11.55,-17.07 18.76,-24.12 7.2,-7.04 15.36,-13.1 24.46,-18.16 9.11,-5.07 18.81,-8.88 29.05,-11.42 10.21,-2.52 20.93,-3.8 32.15,-3.8 10.43,0 20.51,1.25 30.19,3.75 9.7,2.5 18.89,6.23 27.58,11.19 8.69,4.96 16.51,10.87 23.42,17.67 6.93,6.82 12.94,14.54 17.99,23.1 5.08,8.62 8.91,17.77 11.47,27.42 2.55,9.62 3.83,19.68 3.83,30.16 0,9.12 -1.13,17.97 -3.39,26.51 -2.26,8.57 -5.63,16.76 -10.1,24.56 -4.46,7.78 -9.91,14.95 -16.35,21.5 -1.57,1.59 -3.19,3.14 -4.86,4.65l65.75 0c7.85,0 14.69,-0.76 20.47,-2.25 5.55,-1.43 10.22,-3.55 14,-6.34 3.57,-2.65 6.25,-5.72 7.98,-9.19 1.73,-3.52 2.61,-7.55 2.61,-12.11 0,-3.18 -0.39,-6.36 -1.17,-9.51 -0.81,-3.28 -2.04,-6.61 -3.67,-9.97 -1.63,-3.36 -4.02,-7.08 -7.11,-11.15 -3.22,-4.23 -7.19,-8.8 -11.84,-13.69l-123.24 -129.32 44.81 -45.57 125.88 134.4c12.75,13.6 22.37,27.48 28.83,41.62 6.57,14.38 9.88,28.97 9.88,43.77 0,13.97 -2.44,26.64 -7.3,38 -4.9,11.46 -12.22,21.48 -21.94,30.03 -9.64,8.49 -21.11,14.88 -34.33,19.12 -13.01,4.18 -27.66,6.28 -43.89,6.28l-66.04 0c-12.19,0 -23.19,-0.16 -32.96,-0.47 -9.41,-0.29 -17.06,-0.75 -22.94,-1.34 -6.11,-0.62 -11.69,-1.62 -16.7,-2.99 -3.84,-1.05 -7.35,-2.32 -10.53,-3.81 -3.2,1.34 -6.82,2.51 -10.85,3.5 -5.21,1.29 -11.14,2.3 -17.78,3.01 -6.43,0.69 -14.43,1.21 -23.99,1.56 -9.8,0.35 -20.67,0.54 -32.55,0.54l-75.39 0zm158.48 -65.94c9.13,-3.99 17.27,-8.44 24.41,-13.34 7.74,-5.31 14.28,-11.13 19.58,-17.42 5.23,-6.21 9.16,-12.68 11.75,-19.38 2.55,-6.56 3.83,-13.43 3.83,-20.59 0,-8.31 -1.32,-15.77 -3.94,-22.35 -2.59,-6.5 -6.51,-12.3 -11.74,-17.37 -5.25,-5.07 -11.27,-8.9 -18.03,-11.44 -6.82,-2.56 -14.51,-3.85 -23.05,-3.85 -8.53,0 -16.21,1.29 -23.04,3.85 -6.76,2.54 -12.78,6.36 -18.03,11.44 -5.23,5.07 -9.15,10.87 -11.74,17.37 -2.63,6.59 -3.95,14.04 -3.95,22.35 0,15.18 4.67,28.78 14,40.74 4.76,6.11 10.67,11.76 17.71,16.94 6.45,4.74 13.87,9.09 22.24,13.05zm1434.38 15.83c0.46,-0.09 0.63,-0.14 0,-0.14 -0.64,0 -0.46,0.05 0,0.14zm0 36.24c0.63,0 0.46,-0.04 0,-0.11 -0.46,0.07 -0.63,0.11 0,0.11zm-175.32 -50.25c10.94,0 20.6,-1.44 28.97,-4.3 8.17,-2.8 15.14,-6.96 20.9,-12.46 5.78,-5.55 10.12,-12.06 13,-19.54 2.94,-7.65 4.41,-16.42 4.41,-26.31 0,-9.74 -1.42,-18.53 -4.25,-26.34 -2.8,-7.74 -7,-14.64 -12.59,-20.66 -5.56,-5.99 -11.8,-10.49 -18.71,-13.47 -6.91,-2.98 -14.57,-4.48 -22.97,-4.48 -9.8,0 -19.82,2.6 -30.02,7.79 -10.59,5.38 -21.36,13.51 -32.31,24.36 -20.88,20.71 -44.35,52.52 -70.37,95.4l123.94 0zm-28.56 -245.53l0 -55.44 75.83 0 0 62.37 -75.83 0 0 -6.94zm423.1 188.76c0,-21.23 -4.53,-36.94 -13.58,-47.11 -8.84,-9.93 -22.46,-14.91 -40.85,-14.91 -9.51,0 -17.71,1.31 -24.59,3.92 -6.6,2.51 -12.05,6.25 -16.35,11.2 -4.38,5.06 -7.71,11.58 -9.95,19.55 -2.35,8.32 -3.53,18.22 -3.53,29.7 0,8.73 1.21,16.49 3.62,23.23 2.34,6.57 5.83,12.22 10.44,16.91 4.62,4.7 10.23,8.25 16.77,10.62 6.77,2.44 14.63,3.67 23.59,3.67 18.5,0 32.19,-4.6 41.03,-13.79 8.92,-9.26 13.39,-23.6 13.39,-42.98zm120.28 -236.57l55.44 0 0 357.47 -62.38 0 0 -357.47 6.94 0zm-2052.98 917.63c0.46,-0.09 0.64,-0.14 0,-0.14 -0.64,0 -0.46,0.05 0,0.14zm0 36.24c0.63,0 0.45,-0.04 -0.02,-0.11 -0.44,0.07 -0.6,0.11 0.02,0.11zm0 13.87l-48.4 0 0.77 2.22c1.69,5.31 2.54,11.42 2.54,18.3 0,12 -1.75,23.36 -5.25,34.07 -3.5,10.73 -8.75,20.74 -15.73,30.01 -6.96,9.22 -15.34,17.42 -25.11,24.57 -9.74,7.12 -20.86,13.23 -33.32,18.28 -12.42,5.05 -25.85,8.84 -40.22,11.37 -14.3,2.51 -29.53,3.77 -45.67,3.77l-45 0c-25.34,0 -47.89,-3.72 -67.6,-11.13 -19.91,-7.49 -36.87,-18.75 -50.84,-33.75 -13.91,-14.93 -24.34,-32.84 -31.29,-53.7 -6.87,-20.62 -10.32,-44.03 -10.32,-70.23l0 -117.39 62.38 0 0 116.22c0,17.84 2.13,33.42 6.37,46.71 4.15,13 10.36,23.92 18.61,32.7 8.2,8.74 18.37,15.32 30.47,19.71 12.35,4.48 26.82,6.72 43.37,6.72l43.83 0c17.3,0 32.49,-1.36 45.56,-4.07 12.84,-2.67 23.66,-6.63 32.41,-11.86 8.47,-5.06 14.78,-11 18.9,-17.8 4.04,-6.66 6.06,-14.34 6.06,-23.01 0,-4.51 -0.54,-8.33 -1.6,-11.44 -0.94,-2.76 -2.3,-4.96 -4.04,-6.58 -1.84,-1.69 -4.32,-2.99 -7.42,-3.9 -3.47,-1.02 -7.73,-1.53 -12.73,-1.53l-116.41 0 6.76 -62.38 466.27 0c7.81,0 14.73,-0.76 20.73,-2.28 5.79,-1.46 10.73,-3.61 14.79,-6.42 3.81,-2.63 6.66,-5.73 8.53,-9.24 1.85,-3.43 2.77,-7.42 2.77,-11.94 0,-3.41 -0.4,-6.75 -1.18,-9.99 -0.8,-3.33 -2.03,-6.71 -3.67,-10.1 -1.68,-3.47 -3.93,-7.11 -6.76,-10.83 -2.8,-3.68 -6.21,-7.53 -10.24,-11.47l-86.98 -84.89 0 -49.65 224.63 -89.24 18.76 60.02 -166.8 65.69 55.72 55.48c18.48,18.39 34.45,34.26 48.26,47.74 13.45,13.14 24.52,23.67 33.29,31.47 8.64,7.68 16.32,13.98 23.01,18.88 6.52,4.78 12.12,8.25 16.77,10.39 4.61,2.13 9.51,3.73 14.68,4.77 5.21,1.06 10.86,1.59 16.91,1.59l60.77 0c6.29,0 11.92,-0.83 16.86,-2.48 4.85,-1.6 9.11,-4.02 12.8,-7.21 3.55,-3.07 6.22,-6.77 7.99,-11.06 1.83,-4.43 2.75,-9.63 2.75,-15.57l0 -101.61 62.38 0 0 102.2c0,15.18 -2.36,28.91 -7.08,41.13 -4.76,12.33 -11.9,23.01 -21.41,32 -9.47,8.95 -20.48,15.66 -32.95,20.11 -12.36,4.41 -26.15,6.62 -41.34,6.62l-60.77 0c-8.57,0 -16.5,-0.44 -23.75,-1.3 -7.35,-0.87 -14.02,-2.21 -19.99,-3.97 -5.99,-1.77 -12.18,-4.39 -18.5,-7.81 -6.23,-3.37 -12.7,-7.58 -19.35,-12.58 -6.37,-4.78 -13.86,-11.09 -22.45,-18.88 -5.81,-5.27 -12.05,-11.15 -18.68,-17.61 -1.53,6.03 -3.78,11.72 -6.72,17.06 -5.09,9.21 -12.28,17.35 -21.54,24.37 -9.13,6.95 -19.84,12.16 -32.05,15.62 -11.99,3.39 -25.41,5.1 -40.2,5.1l-223.38 0zm446.62 -50.12c0.46,-0.09 0.64,-0.14 0,-0.14 -0.64,0 -0.46,0.05 0,0.14zm0 36.24c0.63,0 0.45,-0.04 -0.02,-0.11 -0.44,0.07 -0.59,0.11 0.02,0.11zm60.85 -251.37l0 -55.44 75.83 0 0 62.38 -75.83 0 0 -6.94zm287.09 265.24l-15.2 0c-15.62,0 -29.51,-2.38 -41.6,-7.15 -12.29,-4.85 -22.69,-12.13 -31.13,-21.85 -8.31,-9.58 -14.55,-21.17 -18.69,-34.74 -4.07,-13.32 -6.1,-28.48 -6.1,-45.47l0 -248.26 62.38 0 0 245.93c0,16.45 3.19,28.59 9.55,36.38 6,7.35 15.31,11.04 27.93,11.04l73.64 0c6.3,0 11.93,-0.83 16.86,-2.47 4.85,-1.62 9.12,-4.04 12.8,-7.22 3.54,-3.07 6.21,-6.77 7.98,-11.06 1.82,-4.43 2.75,-9.63 2.75,-15.56l0 -101.61 62.39 0 0 102.2c0,15.17 -2.36,28.91 -7.08,41.12 -4.76,12.33 -11.9,23.02 -21.41,32 -9.47,8.95 -20.47,15.66 -32.95,20.11 -12.36,4.41 -26.16,6.62 -41.34,6.62l-60.77 0zm8.84 115.2l0 -55.44 75.83 0 0 62.38 -75.83 0 0 -6.94zm461.17 -139.08c0,16.59 -1.68,32.25 -5.02,46.93 -3.36,14.78 -8.4,28.48 -15.08,41.05 -6.77,12.67 -14.89,23.88 -24.34,33.58 -9.48,9.73 -20.31,17.99 -32.49,24.73 -12.13,6.72 -25.17,11.77 -39.08,15.14 -13.89,3.35 -28.58,5.04 -44.04,5.04l-22.65 0 -5.98 -64.14 27.46 0c15.77,0 29.74,-2.26 41.86,-6.77 11.97,-4.45 22.28,-11.14 30.9,-20.04 8.63,-8.9 15.12,-19.58 19.46,-32 4.4,-12.62 6.61,-27.13 6.61,-43.52l0 -178.17 62.39 0 0 178.17zm-73.49 -241.36l0 -55.44 75.82 0 0 62.38 -75.82 0 0 -6.94zm271.67 265.24l-15.2 0c-15.64,0 -29.52,-2.38 -41.6,-7.14 -12.3,-4.84 -22.69,-12.14 -31.13,-21.86 -8.31,-9.58 -14.56,-21.17 -18.69,-34.73 -4.07,-13.32 -6.1,-28.49 -6.1,-45.48l0 -248.26 62.38 0 0 245.93c0,16.45 3.18,28.59 9.53,36.37 6.02,7.35 15.34,11.04 27.95,11.04l53.76 0c14.55,0 27.72,-0.57 39.5,-1.7 11.88,-1.14 22.53,-2.84 31.95,-5.1 9.56,-2.28 19.42,-5.43 29.5,-9.54 9.57,-3.9 19.2,-8.62 28.8,-14.24l84.07 -49.23c-2.58,-7.76 -5.51,-14.46 -8.77,-20.08 -3.78,-6.5 -7.98,-11.53 -12.6,-15.06 -4.58,-3.5 -10.46,-6.17 -17.6,-7.98 -7.47,-1.9 -16.29,-2.86 -26.41,-2.86l-144.59 0 8.19 -64.72 144.58 0c12.05,0 23.18,1.03 33.34,3.08 10.26,2.07 19.49,5.21 27.66,9.4 8.27,4.24 15.84,9.81 22.67,16.69 6.76,6.82 12.84,14.93 18.19,24.32 5.23,9.16 10.13,20.08 14.66,32.71 4.51,12.6 8.65,26.76 12.37,42.44l1.16 4.88 -45.27 27.51c2.2,4.55 4.55,8.54 7.03,11.97 3.23,4.47 6.63,7.88 10.17,10.21 3.56,2.34 8,4.14 13.28,5.38 5.5,1.29 11.89,1.93 19.15,1.93l52.01 0c12.06,0 20.9,-2.52 26.49,-7.56 5.38,-4.85 8.07,-12.49 8.07,-22.9l0 -23.96c0,-19.42 2.62,-36.86 7.83,-52.31 5.29,-15.66 13.24,-29.22 23.84,-40.65 10.64,-11.48 23.28,-20.1 37.9,-25.84 14.46,-5.68 30.79,-8.53 48.98,-8.53 18.15,0 34.31,2.69 48.45,8.06 14.38,5.45 26.62,13.65 36.7,24.58 10.02,10.86 17.54,24.1 22.52,39.69 4.91,15.35 7.37,32.91 7.37,52.66 0,38.1 -10.41,67.77 -31.22,89 -10.47,10.68 -22.92,18.69 -37.32,24.01 -14.22,5.25 -30.31,7.89 -48.26,7.89 -21.22,0 -39.1,-3.22 -53.63,-9.66 -11.35,-5.02 -20.63,-11.98 -27.84,-20.86 -2.14,3.01 -4.44,5.8 -6.9,8.36 -4.87,5.09 -10.37,9.27 -16.48,12.54 -6.03,3.23 -13.01,5.66 -20.89,7.25 -7.74,1.57 -16.29,2.36 -25.61,2.36l-53.76 0c-12.18,0 -23.23,-1.28 -33.11,-3.83 -10.08,-2.6 -18.88,-6.52 -26.37,-11.76 -7.47,-5.23 -14.56,-12.53 -21.25,-21.88 -5.27,-7.37 -10.33,-16.07 -15.17,-26.08l-33.69 21c-12.73,7.93 -25.23,14.68 -37.48,20.21 -12.3,5.56 -24.41,9.91 -36.3,13.04 -11.85,3.1 -25.11,5.44 -39.78,6.98 -14.67,1.55 -30.64,2.32 -47.89,2.32l-39.15 0zm370.51 -50.12c0.46,-0.09 0.63,-0.14 0,-0.14 -0.63,0 -0.46,0.05 0,0.14zm-269.33 165.32l0 -55.44 75.82 0 0 62.38 -75.82 0 0 -6.94zm488.56 -236.09c0,-21.23 -4.53,-36.95 -13.58,-47.11 -8.84,-9.94 -22.46,-14.91 -40.85,-14.91 -9.5,0 -17.71,1.31 -24.59,3.92 -6.6,2.51 -12.05,6.25 -16.35,11.2 -4.38,5.06 -7.71,11.58 -9.96,19.55 -2.35,8.32 -3.53,18.22 -3.53,29.69 0,8.74 1.21,16.49 3.61,23.24 2.35,6.57 5.84,12.22 10.45,16.91 4.61,4.7 10.21,8.24 16.78,10.62 6.74,2.44 14.61,3.66 23.58,3.66 18.5,0 32.18,-4.6 41.03,-13.79 8.92,-9.27 13.39,-23.59 13.39,-42.98zm-2407.34 -1200.77c0,16.98 4.05,29.53 12.14,37.61 8.07,8.1 20.61,12.14 37.61,12.14 9.84,0 18.61,-0.89 26.29,-2.66 7.5,-1.73 14,-4.3 19.46,-7.68 5.17,-3.21 9.01,-6.89 11.5,-11.04 2.4,-3.99 3.6,-8.59 3.6,-13.76l0 -76.62 -52.09 0c-9.29,0 -17.55,1.36 -24.73,4.08 -25.01,9.44 -33.78,32.87 -33.78,57.93zm442.34 -122.73l0 -55.44 75.82 0 0 62.37 -75.82 0 0 -6.94zm880.68 265.25l-594.99 0c-15.63,0 -29.51,-2.38 -41.59,-7.14 -12.3,-4.85 -22.69,-12.14 -31.13,-21.86 -8.32,-9.58 -14.56,-21.17 -18.69,-34.74 -4.07,-13.32 -6.1,-28.49 -6.1,-45.47l0 -248.26 62.37 0 0 245.93c0,16.45 3.19,28.59 9.53,36.37 6.02,7.35 15.35,11.04 27.95,11.04l606.09 0c12.07,0 20.9,-2.53 26.49,-7.56 5.38,-4.85 8.07,-12.49 8.07,-22.9 0,-26.61 -0.92,-50.36 7.83,-76.27 5.29,-15.66 13.25,-29.22 23.85,-40.65 10.64,-11.48 23.28,-20.09 37.9,-25.84 14.46,-5.68 30.79,-8.52 48.98,-8.52 18.15,0 34.31,2.69 48.45,8.06 14.37,5.45 26.61,13.65 36.7,24.58 10.02,10.87 17.54,24.1 22.53,39.69 4.9,15.36 7.37,32.91 7.37,52.66 0,18.84 -2.57,35.66 -7.71,50.46 -5.21,15.02 -13.06,27.87 -23.51,38.54 -10.47,10.68 -22.91,18.69 -37.31,24.01 -14.22,5.25 -30.31,7.89 -48.26,7.89 -21.22,0 -39.1,-3.22 -53.63,-9.66 -11.35,-5.02 -20.64,-11.98 -27.85,-20.86 -2.14,3.01 -4.44,5.8 -6.89,8.36 -4.86,5.08 -10.37,9.27 -16.49,12.55 -6.04,3.24 -13.01,5.66 -20.89,7.26 -7.73,1.57 -16.28,2.36 -25.61,2.36l-13.44 0zm219.23 -120.9c0,-41.35 -18.14,-62.02 -54.43,-62.02 -9.5,0 -17.71,1.31 -24.59,3.92 -6.6,2.51 -12.05,6.24 -16.35,11.2 -14.16,16.34 -16.91,52.78 -9.87,72.49 2.34,6.56 5.83,12.2 10.45,16.9 4.62,4.71 10.22,8.25 16.76,10.61 6.77,2.44 14.64,3.66 23.6,3.66 18.5,0 32.19,-4.6 41.03,-13.79 8.93,-9.27 13.39,-23.59 13.39,-42.98zm260.57 120.9l-15.2 0c-15.65,0 -29.53,-2.38 -41.6,-7.14 -12.3,-4.85 -22.68,-12.14 -31.12,-21.86 -8.32,-9.59 -14.55,-21.17 -18.69,-34.74 -4.07,-13.32 -6.1,-28.49 -6.1,-45.47l0 -248.26 62.38 0 0 245.93c0,16.47 3.18,28.6 9.53,36.38 6.02,7.35 15.35,11.04 27.96,11.04l265.5 0c7.93,0 14.88,-0.92 20.84,-2.74 5.74,-1.76 10.65,-4.39 14.7,-7.85 3.95,-3.39 6.92,-7.41 8.87,-12.03 2.01,-4.75 3.01,-10.29 3.01,-16.6l0 -98.69 62.96 0 0 98.69c0,13.33 3.55,23.15 10.65,29.45 7.34,6.52 18.82,9.78 34.42,9.78 7.93,0 14.88,-0.92 20.84,-2.74 5.75,-1.76 10.65,-4.39 14.7,-7.85 3.96,-3.39 6.91,-7.41 8.87,-12.03 2.01,-4.74 3.01,-10.28 3.01,-16.6l0 -98.69 62.38 0 0 98.69c0,6.59 0.91,12.36 2.71,17.26 1.73,4.69 4.29,8.67 7.69,11.91 3.43,3.27 7.74,5.75 12.9,7.42 5.45,1.75 11.93,2.64 19.44,2.64 7.52,0 14.02,-0.88 19.51,-2.63 5.23,-1.68 9.64,-4.18 13.17,-7.48 3.49,-3.25 6.12,-7.22 7.88,-11.9 1.83,-4.88 2.75,-10.63 2.75,-17.22l0 -98.69 62.38 0 0 97.52c0,32.31 -9.57,57.84 -28.69,76.54 -9.56,9.35 -20.85,16.37 -33.84,21.05 -12.83,4.62 -27.22,6.94 -43.16,6.94 -20.71,0 -37.88,-3.25 -51.48,-9.74 -10.47,-4.99 -18.8,-11.87 -25.01,-20.62 -7.1,8.75 -15.93,15.63 -26.48,20.62 -13.71,6.49 -30.23,9.74 -49.56,9.74 -21.62,0 -39.48,-3.24 -53.57,-9.71 -10.89,-5 -19.5,-11.9 -25.82,-20.68 -7.1,8.77 -15.94,15.65 -26.5,20.65 -13.71,6.49 -30.23,9.74 -49.56,9.74l-252.65 0z"/>
   <path fill="#19499E" d="M5224.94 549.81c49.25,28.53 76.78,80.17 76.84,133.23l0.15 424.92c-77.52,-41.94 -181.12,-82.71 -283.49,-106.4l-0.05 -180.24c-0.04,-37.93 -19.71,-74.8 -54.88,-95.18l-599.39 -345.83c-32.8,-18.96 -74.53,-20.41 -109.74,-0.17 -197.53,114.06 -395.19,227.92 -592.75,341.97 -0.35,0.67 -328.04,-99.13 -330.98,-104.61 15.01,-31.93 40.63,-57.87 72.32,-73.3 276.5,-159.63 553.09,-318.99 829.58,-478.59 49.27,-28.32 107.67,-26.29 153.59,0.23l838.81 483.99zm-1625.2 813.37l0.05 150.12c0.04,37.95 19.71,74.84 54.89,95.2l577.75 333.59c22.65,13.24 56.64,27.81 67.42,6.46 5.09,-10.05 38.18,20.46 34.31,34.26 -24.45,87.5 -53.19,133.55 -95.92,187.75 -10.94,13.89 -10.4,50.66 -25.58,62.51 -12.91,10.1 -21.06,12.25 -38.5,2.2l-780.92 -450.56c-49.24,-28.52 -76.78,-80.13 -76.83,-133.21l-0.13 -417.35c90.08,46.2 188.72,93.52 283.48,129.04z"/>
   <path fill="#FCBC0D" d="M5018.45 1181.21l-0.05 331.02c-0.04,37.94 -19.72,74.83 -54.9,95.19l-520.05 300.29c13.58,103.91 -19.82,227.84 -117.75,379.9 18.88,-2.07 37.28,-7.6 54.18,-16.35l845.08 -487.61c49.23,-28.52 76.78,-80.14 76.82,-133.21l0.13 -312.48c0.01,-19.22 -1.94,-32.78 -11.4,-42.2 -53.38,-53.19 -165.35,-133.22 -247.86,-152.51 -18.3,-4.27 -24.21,9.45 -24.21,37.97z"/>
   <path fill="#19499E" fill-rule="nonzero" d="M3225.89 248.93c8.61,-8.28 22.33,-8.02 30.6,0.59 8.28,8.61 8.02,22.32 -0.59,30.6 -31.99,30.68 -53.68,59.94 -65.98,87.71 -18.75,42.32 -15.26,81.83 6.68,118.32 23.6,39.27 68.08,76.02 129.07,109.9 110.91,61.57 274.39,112.41 466.38,151.3 139.91,28.34 293.81,52.24 450.03,76.47 606.89,94.15 1249,193.81 1271,586.58 0.65,11.93 -8.5,22.14 -20.43,22.79 -11.93,0.65 -22.14,-8.5 -22.79,-20.43 -20.03,-357.81 -644.33,-454.7 -1234.39,-546.23 -156.85,-24.33 -311.36,-48.31 -451.9,-76.79 -196.23,-39.75 -364,-92.09 -478.9,-155.87 -67.53,-37.5 -117.47,-79.4 -145.19,-125.5 -29.4,-48.93 -34.16,-101.68 -9.21,-158 14.55,-32.87 39.42,-66.73 75.62,-101.44z"/>
   <path fill="#19499E" fill-rule="nonzero" d="M4108.88 0.44c11.93,0.27 21.38,10.18 21.11,22.11 -0.27,11.93 -10.18,21.38 -22.11,21.11 -368.2,-8.7 -721.01,116.96 -938.03,300.73 -91.41,77.4 -158.37,164.9 -191.56,256.55 -32.63,90.11 -32.57,184.7 9.21,277.95 61.71,137.8 213.96,273.7 485.01,390.34 70.72,30.43 143.61,58.92 215.86,87.13 171.26,66.9 339.27,132.53 462.81,217.39 205.48,141.14 288.51,331.2 66.66,654.16 -6.72,9.88 -20.21,12.41 -30.09,5.68 -9.88,-6.73 -12.41,-20.21 -5.68,-30.09 202.74,-295.15 129.2,-467.26 -55.3,-593.99 -119.49,-82.06 -285.22,-146.83 -454.17,-212.81 -73.07,-28.54 -146.79,-57.34 -217.22,-87.65 -281.92,-121.33 -441.42,-265.18 -507.39,-412.53 -46.69,-104.22 -46.8,-209.8 -10.39,-310.32 35.85,-98.99 107.23,-192.7 204.27,-274.88 224.31,-189.95 588.08,-319.85 967,-310.89z"/>
  </g>
 </g>
</svg>
