<svg xmlns="http://www.w3.org/2000/svg" width="549" height="235" fill="none" xmlns:v="https://vecta.io/nano"><path d="M31.469 34.998c-9.633 0-17.334 2.801-22.979 8.346S0 56.447 0 65.885V163.9c0 15.934 5.295 25.439 18.588 26.063V65.885c0-7.902 4.251-12.148 12.15-12.148h15.105c0-.271 30.699-.148 33.654-.148 6.055 0 9.514 3.462 9.514 9.516v13.525H73.129V60.883c-11.282-.286-17.799 1.991-18.67 15.748-.123 0-.051 15.254-.051 16.686h38.557c8.06 0 14.334-5.322 14.488-16.686l.002-14.992c0-8.662-2.293-15.294-6.879-19.832s-11.59-6.809-20.93-6.809H31.469zm124.469.047c-4.676-.023-12.089.006-17.875.006-2.301 0-4.539.368-6.613 1.025-2.14.684-4.111 1.695-5.791 2.941-2.104 1.557-3.81 3.497-4.969 5.713a15.25 15.25 0 0 0-1.752 7.131v4.08a15.28 15.28 0 0 0 1.748 7.131c1.161 2.212 2.871 4.159 4.973 5.717 1.679 1.247 3.658 2.257 5.805 2.941 2.069.659 4.302 1.023 6.6 1.023h19.783v.002c2.12 0 3.437.624 3.98 1.42a1.42 1.42 0 0 1 .262.814c0 .271-.093.556-.268.814-.555.815-1.886 1.457-3.975 1.457h-36.207l.012.592c.087 3.77.667 7.764 3.314 10.84 2.626 3.053 7.271 5.159 15.469 5.156l17.412.01a21.9 21.9 0 0 0 6.609-1.025c2.144-.681 4.116-1.691 5.795-2.937 2.101-1.557 3.808-3.501 4.969-5.717 1.127-2.15 1.752-4.562 1.752-7.131v-4.084c0-2.572-.625-4.98-1.752-7.127-1.161-2.219-2.867-4.163-4.969-5.717-1.681-1.248-3.658-2.257-5.801-2.937-2.066-.658-4.303-1.025-6.604-1.025h-19.783c-2.171 0-3.531-.635-4.098-1.443-.178-.255-.271-.536-.271-.811s.096-.557.277-.812c.564-.808 1.927-1.444 4.092-1.447l34.953.008-.016-.594c-.383-15.668-12.506-15.977-17.062-16.014zm44.377.008c-2.659 0-5.195.648-7.498 1.807-2.39 1.207-4.534 2.974-6.312 5.16-1.668 2.049-3.022 4.484-3.939 7.16-.886 2.572-1.377 5.379-1.377 8.285v13.881c0 2.906.491 5.713 1.377 8.285.917 2.676 2.271 5.111 3.939 7.16 1.775 2.182 3.922 3.953 6.313 5.16 2.303 1.158 4.839 1.807 7.498 1.807l15.574-.02c8.193 0 12.839-2.108 15.471-5.154 2.643-3.073 3.223-7.069 3.314-10.836l.014-.592h-20.84l.002.004-13.535.002c-.428 0-.853-.12-1.236-.326a4 4 0 0 1-1.166-1.002c-.448-.549-.811-1.229-1.059-1.998-.237-.742-.373-1.588-.373-2.488V57.467c0-.903.136-1.751.371-2.49.248-.769.611-1.45 1.057-2 .347-.422.745-.765 1.164-.994a2.63 2.63 0 0 1 1.242-.33l34.375.002-.014-.592c-.088-3.669-.638-7.544-3.104-10.584-1.336-1.647-3.936-5.985-13.871-5.426h-17.387zm61.643 0c-2.659 0-5.196.645-7.5 1.807-2.387 1.203-4.535 2.974-6.311 5.16-1.665 2.045-3.014 4.482-3.937 7.158a25.58 25.58 0 0 0-1.375 8.285v35.641l-.002.002v.58h15.289V57.467c0-.9.136-1.746.375-2.488.246-.769.613-1.452 1.059-2.002.344-.422.741-.767 1.16-.996a2.64 2.64 0 0 1 1.242-.33l30.365.004-.014-.594c-.088-3.642-.631-7.489-3.055-10.52-2.358-2.945-6.48-5.079-13.648-5.416v-.072h-13.648zm178.287 5.762c-8.685-.329-16.413 6.332-37.109 18.43-27.685 16.182-33.812 14.263-31.6 40.994l29.572-16.826 65.186 37.938c5.488 3.108 10.785 8.451 16.354 6.297 4.511-1.746 13.003-7.514 14.887-9.98l-76.055-44.387c2.778-3.563 7.974-6.168 11.531-8.008 11.907-6.163 20.024 3.693 42.406 16.27l53.264 30.285c2.063 33.7 3.767 54.062-19.82 68.443l-56.271 31.781c-20.244 8.076-41.602-8.459-62.773-21.201-9.403-5.659-19.868-11.632-29.621-17.053-9.156-5.091-19.583-11.878-27.721-15.678-.562 10.548 2.543 19.349 10.389 26.633l43.959 25.828c23.263 13.217 45.547 33.673 76.41 17.529l66.789-39.236c10.167-7.362 16.781-16.821 17.516-34.898.635-15.636 1.212-38.036.773-53.354l-94.32-54.879c-5.652-3.184-9.796-4.778-13.744-4.928zM28.881 60.104v101.096c0 5.864 1.42 15.008 5.49 19.617 4.978 5.644 11.942 9.148 19.672 9.148h16.221v-.061c21.464-.69 24.234-11.249 24.49-20.801H55.227c-2.212 0-3.803-.366-5.295-2.057-1.175-1.326-1.978-3.148-2.223-5.246-.145-.144-.09-61.262-.09-77.625 0-21.123-9.853-23.837-18.738-24.072zm235.246 1.955v16.596l4.775-.012c7.722-.141 12.151-2.232 14.678-5.203 2.599-3.066 3.173-7.027 3.264-10.773l.014-.592-17.955-.006-4.775-.01zm-48.912 41.553c-17.173.462-18.734 7.26-18.734 23.75h.002c-.358 1.678-1.14 3.065-2.34 4.16-1.7 1.556-4.217 2.344-7.537 2.344h-45.861c-1.685-.05-3.388-.005-5.09 0-2.663.008-5.328-.002-7.965-.002-7.236 0-13.755 3.279-18.416 8.563-4.385 4.969-7.109 11.725-7.109 19.061v.854c0 7.333 2.724 14.087 7.111 19.055 4.661 5.286 11.181 8.57 18.414 8.57h135.836v-.025h2.219c22.019 0 24.821-10.259 25.068-19.51h-27.867v.004H127.689c-1.426 0-2.795-.739-3.844-1.93-1.327-1.501-2.15-3.68-2.15-6.162v-.854c0-2.488.821-4.669 2.148-6.168 1.048-1.188 2.417-1.926 3.846-1.926l15.914.004v-.068h43.004c8.662 0 14.927-2.582 18.738-7.756 1.558 2.541 3.95 4.466 7.17 5.781s7.513 1.975 12.879 1.975c4.586 0 8.37-.66 11.344-1.975s5.397-3.239 7.248-5.781c1.558 2.541 3.907 4.469 7.025 5.781s7.267 1.975 12.441 1.975c8.783 0 15.64-2.464 20.566-7.385 5.593-5.6 7.393-13.126 7.393-20.715v-21.617c-17.835.479-18.734 9.785-18.734 23.504-.675 4.499-3.75 6.748-9.225 6.748-6.247 0-9.373-2.947-9.373-8.787v-21.467c-18.766.503-18.73 9.537-18.73 23.313-.307 1.876-1.111 3.411-2.416 4.598-1.701 1.556-4.22 2.344-7.539 2.344-6.733 0-10.1-2.947-10.1-8.787l-.08-21.467zM58.377 133.865v16.686h26.789c8.06 0 14.335-5.325 14.488-16.686h-.002-41.275z" fill="#19499e"/><path d="M438.578.021c-12.879.497-25.872 9.29-54.684 25.934C355.72 42.23 334.14 48.354 332.77 81.367c-.695 16.743-.096 34.763-.096 51.645 1.946 3.92.656 2.398 5.189 5.225l41.705 23.836c70.257 39.142 49.756 40.85 97.139 13.891 29.578-16.829 33.764-15.369 31.973-41.088l-26.518 14.885-29.344 17.264c-14.872 9.833-25.972-.559-48.879-14.045-15.444-9.092-36.277-22.393-52.309-29.855-.97-9.476-1.115-34.785.504-43.551 3.827-20.697 26.376-29.093 47.057-41.023 44.447-25.64 39.747-24.543 91.258 5.564l21.523 13.004c14.885 8.725 32.643 18.938 36.322 20.012-.972-19.768-8.745-26.498-26.994-36.832l-28.725-16.436C464.221 7.324 451.457-.475 438.578.021z" fill="#fcbc0d"/></svg>